<svg xmlns="http://www.w3.org/2000/svg" viewBox="0 0 23 23" width="23" height="23">
	<style>
		tspan { white-space:pre }
		.shp0 { fill: #0f94f2 } 
	</style>
	<path id="Layer" class="shp0" d="M9.55,0.5c1.22,0 2.38,0.24 3.49,0.73c1.07,0.44 2.04,1.09 2.86,1.9c0.82,0.83 1.47,1.81 1.92,2.88c0.48,1.1 0.73,2.29 0.73,3.49c0,1.02 -0.17,2.04 -0.52,3c-0.33,0.95 -0.82,1.84 -1.45,2.63l5.67,5.67c0.19,0.19 0.29,0.44 0.28,0.7c0.01,0.26 -0.09,0.52 -0.28,0.7c-0.18,0.2 -0.44,0.31 -0.7,0.3c-0.27,0 -0.54,-0.11 -0.73,-0.3l-5.67,-5.67c-0.78,0.62 -1.66,1.12 -2.6,1.45c-0.96,0.35 -1.98,0.52 -3,0.52c-1.21,0 -2.4,-0.24 -3.52,-0.7c-1.07,-0.45 -2.04,-1.11 -2.86,-1.92c-0.81,-0.84 -1.46,-1.81 -1.92,-2.88c-0.47,-1.1 -0.71,-2.29 -0.7,-3.49c0,-1.22 0.23,-2.38 0.7,-3.49c0.46,-1.07 1.11,-2.05 1.92,-2.88c0.82,-0.81 1.79,-1.46 2.86,-1.9c1.11,-0.48 2.31,-0.73 3.52,-0.73zM9.55,2.49c-0.95,0 -1.86,0.19 -2.72,0.56c-0.84,0.35 -1.6,0.86 -2.25,1.5c-0.63,0.64 -1.13,1.39 -1.48,2.22c-0.37,0.86 -0.57,1.78 -0.56,2.72c0,0.95 0.19,1.86 0.56,2.72c0.36,0.86 0.85,1.6 1.48,2.23c0.65,0.64 1.41,1.15 2.25,1.5c0.86,0.38 1.77,0.56 2.72,0.56c0.94,0 1.86,-0.19 2.72,-0.56c0.83,-0.36 1.59,-0.86 2.23,-1.5c0.64,-0.64 1.14,-1.4 1.5,-2.23c0.36,-0.86 0.54,-1.77 0.54,-2.72c0,-0.95 -0.18,-1.86 -0.54,-2.72c-0.36,-0.83 -0.86,-1.59 -1.5,-2.23c-0.64,-0.64 -1.4,-1.14 -2.23,-1.5c-0.86,-0.37 -1.78,-0.56 -2.72,-0.56z" />
</svg>